<?xml version="1.0" standalone="no"?>
<!DOCTYPE svg PUBLIC "-//W3C//DTD SVG 20010904//EN"
 "http://www.w3.org/TR/2001/REC-SVG-20010904/DTD/svg10.dtd">
<svg version="1.0" xmlns="http://www.w3.org/2000/svg"
 width="640.000000pt" height="644.000000pt" viewBox="0 0 640.000000 644.000000"
 preserveAspectRatio="xMidYMid meet">

<g transform="translate(0.000000,644.000000) scale(0.100000,-0.100000)"
fill="#000000" stroke="none">
<path d="M2937 6310 c-732 -71 -1396 -381 -1912 -894 -391 -390 -661 -850
-809 -1384 -123 -441 -143 -955 -55 -1412 135 -701 511 -1339 1059 -1797 571
-478 1251 -724 2000 -724 504 0 945 103 1390 326 835 418 1435 1181 1644 2093
64 277 92 666 67 943 -73 843 -465 1597 -1111 2141 -427 359 -977 604 -1550
688 -162 24 -564 35 -723 20z m-1745 -2563 c62 -31 126 -94 158 -157 24 -47
50 -156 50 -212 l0 -38 -329 0 c-218 0 -332 -4 -336 -10 -13 -22 17 -147 49
-206 56 -103 151 -150 282 -142 117 8 194 65 240 180 19 47 26 53 54 56 31 3
32 3 25 -28 -22 -102 -101 -202 -188 -241 -44 -20 -69 -23 -162 -24 -92 0
-118 4 -156 21 -135 63 -210 200 -212 389 -3 211 99 378 262 430 73 23 195 15
263 -18z m1541 13 c113 -35 200 -133 231 -259 23 -92 27 -153 15 -236 -15
-108 -42 -175 -95 -234 -62 -68 -132 -101 -231 -108 -147 -10 -255 33 -313
124 l-30 47 0 -227 0 -227 -30 0 -30 0 0 560 0 560 30 0 29 0 3 -87 3 -88 22
42 c47 86 164 152 274 153 31 0 86 -9 122 -20z m1297 -12 c125 -57 209 -199
210 -355 l0 -53 -329 0 c-182 0 -332 -3 -334 -7 -3 -5 -1 -37 4 -72 17 -118
73 -205 164 -254 59 -32 212 -32 271 0 55 29 109 94 133 157 16 45 22 51 50
54 39 4 40 -10 7 -90 -35 -86 -78 -133 -154 -170 -63 -31 -72 -33 -177 -33
-102 0 -114 2 -168 29 -130 66 -197 198 -197 386 0 217 102 380 268 427 72 20
186 12 252 -19z m759 18 c108 -29 176 -103 188 -205 l6 -51 -31 0 c-28 0 -32
4 -38 38 -16 90 -69 142 -167 162 -116 23 -239 -11 -284 -79 -55 -83 -6 -174
112 -210 35 -11 92 -25 127 -31 76 -13 184 -47 217 -69 13 -8 37 -33 52 -55
26 -35 29 -47 29 -116 0 -92 -19 -127 -92 -177 -79 -53 -254 -68 -370 -33 -91
27 -174 125 -185 218 l-6 52 31 0 c26 0 31 -4 37 -32 16 -74 63 -135 130 -171
34 -19 56 -22 145 -22 93 0 111 3 154 25 61 31 87 65 93 122 12 104 -60 159
-255 198 -233 47 -302 101 -302 237 0 72 23 118 76 155 76 54 223 73 333 44z
m771 -1 c107 -28 176 -105 188 -210 l5 -46 -34 3 c-32 3 -34 6 -40 46 -14 107
-134 175 -278 157 -117 -14 -181 -63 -188 -142 -8 -96 45 -136 238 -179 183
-41 219 -54 266 -101 47 -47 58 -82 51 -172 -10 -136 -143 -212 -352 -199 -94
6 -153 28 -211 79 -45 40 -85 119 -85 172 0 34 2 37 29 37 26 0 30 -4 41 -49
14 -59 65 -123 124 -154 35 -19 56 -22 146 -22 89 1 112 4 153 24 67 33 92 72
92 143 0 49 -4 61 -29 87 -38 40 -102 66 -225 91 -122 25 -190 49 -237 85 -49
37 -64 73 -64 152 0 78 24 125 83 162 78 48 223 64 327 36z m-3902 -170 c67
-91 126 -165 130 -165 4 0 63 74 131 165 123 164 124 165 162 165 22 0 39 -3
39 -7 -1 -5 -65 -93 -145 -196 l-144 -188 153 -202 c83 -111 155 -208 160
-215 5 -9 -5 -12 -37 -12 l-44 0 -134 185 c-74 102 -137 185 -140 185 -4 0
-69 -83 -145 -185 -137 -183 -139 -185 -176 -185 -21 0 -38 2 -38 5 0 3 68 96
150 206 83 110 153 205 155 212 3 7 -60 96 -140 200 -80 103 -145 189 -145
192 0 3 19 5 43 5 l43 0 122 -165z m1532 83 l0 -81 30 41 c51 70 155 122 245
122 43 0 45 -1 45 -29 0 -27 -2 -28 -58 -34 -72 -6 -124 -32 -178 -89 -79 -82
-79 -79 -82 -390 l-3 -278 -35 0 -34 0 0 410 0 410 35 0 35 0 0 -82z"/>
<path d="M958 3706 c-60 -16 -119 -57 -153 -106 -34 -50 -65 -132 -65 -175 l0
-35 295 0 295 0 0 23 c0 39 -28 126 -54 171 -34 58 -97 106 -159 123 -62 16
-97 16 -159 -1z"/>
<path d="M2528 3707 c-153 -43 -239 -226 -208 -439 19 -133 68 -215 154 -261
60 -32 213 -32 272 0 93 50 148 136 166 263 28 189 -49 372 -180 427 -49 20
-149 25 -204 10z"/>
<path d="M3806 3709 c-115 -27 -204 -137 -223 -275 l-6 -44 297 0 296 0 0 28
c0 15 -6 51 -14 79 -43 163 -187 250 -350 212z"/>
</g>
</svg>
