<svg fill="#000000" xmlns="http://www.w3.org/2000/svg"  viewBox="0 0 50 50" width="100px" height="100px"><path d="M24.5,2C15.8,2,14,6.5,14,9.1V14h10v1H9.1C5.8,15,2,17.6,2,25s3.8,10,7.1,10H15v-6c0-2.2,1.8-4,4-4l12,0c1.7,0,3-1.3,3-3V9.1C34,5.6,30.7,2,24.5,2z M20,11c-1.1,0-2-0.9-2-2c0-1.1,0.9-2,2-2c1.1,0,2,0.9,2,2C22,10.1,21.1,11,20,11z"/><path d="M25.5,48c8.7,0,10.5-4.5,10.5-7.1V36H26v-1h14.9c3.3,0,7.1-2.6,7.1-10s-3.8-10-7.1-10H35v7c0,2.2-1.8,4-4,4l-12,0c-1.7,0-3,1.3-3,3v11.9C16,44.4,19.3,48,25.5,48z M30,39c1.1,0,2,0.9,2,2c0,1.1-0.9,2-2,2c-1.1,0-2-0.9-2-2C28,39.9,28.9,39,30,39z"/></svg>