<?xml version="1.0"?>
<svg xmlns="http://www.w3.org/2000/svg" height="512px" viewBox="0 0 512 512.00028" width="512px" 
class="">
<g>
<path d="m297.238281 320.363281-105.597656-105.601562c-7.8125-7.808594-7.8125-20.472657 0-28.285157l180.617187-180.617187c7.8125-7.8125 20.476563-7.8125 28.285157 0l105.597656 105.597656c7.8125 7.808594 7.8125 20.472657 0 28.285157l-180.617187 180.621093c-7.8125 7.808594-20.476563 7.808594-28.285157 0zm0 0" fill="#fded32" data-original="#FDED32" class="active-path" style="fill:#E3E9ED" data-old_color="#fded32"/><path d="m297.238281 320.363281-82.515625-82.519531c-7.8125-7.808594-7.8125-20.472656 0-28.28125l180.621094-180.621094c7.808594-7.808594 20.472656-7.808594 28.28125 0l82.515625 82.515625c7.8125 7.808594 7.8125 20.472657 0 28.285157l-180.617187 180.621093c-7.8125 7.808594-20.476563 7.808594-28.285157 0zm0 0" fill="#fdf385" data-original="#FDF385" class="" style="fill:#E3E9ED" data-old_color="#fdf385"/><path d="m413.808594 79.722656-180.621094 180.621094c-7.808594 7.8125-20.472656 7.8125-28.28125 0l-10.957031-10.957031c-7.8125-7.808594-7.8125-20.472657 0-28.285157l180.617187-180.617187c7.8125-7.8125 20.476563-7.8125 28.285156 0l10.957032 10.957031c7.808594 7.808594 7.808594 20.472656 0 28.28125zm56.554687 28.273438-10.957031-10.960938c-7.808594-7.808594-20.472656-7.808594-28.285156 0l-180.617188 180.621094c-7.8125 7.8125-7.8125 20.472656 0 28.285156l10.953125 10.957032c7.8125 7.808593 20.476563 7.808593 28.285157 0l180.621093-180.621094c7.808594-7.808594 7.808594-20.472656 0-28.28125zm0 0" fill="#e8ce00" data-original="#E8CE00" class="" style="fill:#5F7D95" data-old_color="#e8ce00"/><path d="m6.574219 313.835938 251.617187-251.617188c6.214844-6.21875 16.421875-6.089844 22.796875.285156l168.507813 168.507813c6.371094 6.375 6.5 16.582031.285156 22.796875l-251.617188 251.617187c-94.933593-21.925781-169.664062-96.65625-191.589843-191.589843zm0 0" fill="#0cabb9" data-original="#0CABB9" class=""/><path d="m14.355469 340.675781 261.148437-261.144531c6.214844-6.214844 16.421875-6.085938 22.796875.285156l151.195313 151.195313c6.375 6.375 6.503906 16.582031.285156 22.796875l-251.617188 251.617187c-74.660156-17.242187-136.828124-67.140625-170.636718-133.84375-5.039063-9.945312-9.445313-20.265625-13.171875-30.90625zm0 0" fill="#2abbc7" data-original="#2ABBC7" class="" style="fill:#83CFCD" data-old_color="#2abbc7"/><path d="m136.570312 375.433594c29.90625 29.90625 31.164063 77.589844 3.8125 109.015625-48.558593-24.625-88.210937-64.269531-112.835937-112.828125 31.429687-27.351563 79.113281-26.097656 109.023437 3.8125zm0 0" fill="#0995a3" data-original="#0995A3" class=""/><path d="m283.648438 392.972656c0 1.011719-.402344 1.980469-1.117188 2.695313-1.492188 1.492187-3.90625 1.492187-5.394531 0l-176.199219-176.195313 121.1875-121.1875 176.199219 176.195313c1.488281 1.492187 1.488281 3.90625 0 5.398437-.71875.714844-1.6875 1.117188-2.699219 1.117188h-22.324219v22.324218c0 1.011719-.402343 1.980469-1.117187 2.695313l-3.746094 3.746094c-.714844.714843-1.683594 1.117187-2.695312 1.117187h-22.324219v22.324219c0 1.011719-.402344 1.980469-1.117188 2.699219l-3.746093 3.742187c-.714844.71875-1.6875 1.117188-2.699219 1.117188h-22.320313v22.324219c0 1.011718-.402344 1.984374-1.121094 2.699218l-3.742187 3.746094c-.71875.714844-1.6875 1.117188-2.699219 1.117188h-22.324218zm0 0" fill="#fdf7bd" data-original="#FDF7BD" class="" style="fill:#FDF385" data-old_color="#fdf7bd"/><path d="m118.25 236.785156-17.3125-17.316406 121.1875-121.183594 17.3125 17.3125zm0 0" fill="#fcf498" data-original="#FCF498" class="" style="fill:#F1ED7B" data-old_color="#fcf498"/><path d="m294.132812 226.671875-79.230468 55.476563c-2.261719 1.585937-5.378906 1.035156-6.964844-1.226563l-6.160156-8.800781c-1.585938-2.261719-1.035156-5.378906 1.226562-6.960938l79.230469-55.480468c2.261719-1.582032 5.378906-1.03125 6.964844 1.230468l6.160156 8.796875c1.582031 2.261719 1.035156 5.378907-1.226563 6.964844zm-89.878906 20.03125v-45.101563h45.101563c1.910156 0 3.457031-1.550781 3.457031-3.457031v-13.828125c0-1.910156-1.546875-3.457031-3.457031-3.457031h-62.21875c-1 0-1.890625.429687-2.519531 1.101563-.675782.632812-1.101563 1.523437-1.101563 2.519531v62.222656c0 1.910156 1.546875 3.457031 3.457031 3.457031h13.824219c1.910156 0 3.457031-1.546875 3.457031-3.457031zm105.914063-5.03125h-13.828125c-1.910156 0-3.457032 1.546875-3.457032 3.457031v45.101563h-45.101562c-1.910156 0-3.457031 1.546875-3.457031 3.457031v13.828125c0 1.90625 1.546875 3.457031 3.457031 3.457031h62.222656c.996094 0 1.886719-.429687 2.519532-1.105468.671874-.628907 1.101562-1.519532 1.101562-2.519532v-62.21875c0-1.910156-1.550781-3.457031-3.457031-3.457031zm0 0" fill="#013f69" data-original="#013F69" class="" style="fill:#013F69"/></g> </svg>
