<?xml version="1.0"?>
<svg xmlns="http://www.w3.org/2000/svg" height="512px" viewBox="-28 0 512 512" width="512px" class=""><g><path d="m330.480469 504.5c0-34.207031-13.804688-68.339844-38.222657-92.398438-5.472656-5.390624-9.292968-8.09375-9.292968-8.09375h-109.996094s-3.824219 2.703126-9.296875 8.09375c-24.398437 24.042969-38.21875 58.222657-38.21875 92.398438zm0 0" fill="#52b2de" data-original="#52B2DE" class="" style="fill:#F1ED7B" data-old_color="#52b2de"/><path d="m383.675781 70.945312c-41.617187-40.914062-96.917969-63.445312-155.710937-63.445312-58.789063 0-114.089844 22.53125-155.710938 63.445312-41.757812 41.046876-64.753906 95.664063-64.753906 153.785157 0 119.703125 101.867188 217.230469 220.464844 217.234375 118.800781 0 220.46875-97.574219 220.46875-217.234375 0-58.121094-22.996094-112.738281-64.757813-153.785157zm0 0" fill="#394048" data-original="#394048" class="active-path" style="fill:#394048" data-old_color="#394048"/><path d="m120.65625 162.980469c-25.808594 11.429687-45.480469 25.429687-59.191406 37.210937-16.878906 14.5-24.878906 36.898438-20.777344 58.757813 16.359375 87.050781 93.976562 152.992187 187.277344 152.992187 93.300781 0 170.921875-65.941406 187.28125-152.992187 4.101562-21.859375-3.898438-44.257813-20.78125-58.757813-8.390625-7.203125-19-15.242187-31.878906-23zm0 0" fill="#f5cdb6" data-original="#F5CDB6" class=""/><path d="m70.6875 258.949219c-4.101562-21.859375 3.898438-44.257813 20.777344-58.757813 13.09375-11.253906 31.640625-24.523437 55.765625-35.652344l-26.574219-1.558593c-25.808594 11.429687-45.480469 25.429687-59.191406 37.210937-16.878906 14.5-24.878906 36.898438-20.777344 58.757813 16.359375 87.050781 93.976562 152.992187 187.277344 152.992187 5.050781 0 10.050781-.207031 15-.585937-86.519532-6.625-156.804688-70.066407-172.277344-152.40625zm0 0" fill="#e2b3a3" data-original="#E2B3A3" class=""/><path d="m325.796875 298.621094h-22.878906c-4.144531 0-7.5-3.355469-7.5-7.5 0-4.140625 3.355469-7.5 7.5-7.5h22.878906c4.140625 0 7.5 3.359375 7.5 7.5 0 4.144531-3.359375 7.5-7.5 7.5zm0 0" fill="#e98e8f" data-original="#E98E8F" class="" style="fill:#F5CDB6" data-old_color="#e98e8f"/><path d="m153.015625 298.621094h-22.878906c-4.140625 0-7.5-3.355469-7.5-7.5 0-4.140625 3.359375-7.5 7.5-7.5h22.878906c4.140625 0 7.5 3.359375 7.5 7.5 0 4.144531-3.359375 7.5-7.5 7.5zm0 0" fill="#e98e8f" data-original="#E98E8F" class="" style="fill:#F5CDB6" data-old_color="#e98e8f"/><path d="m40.6875 258.949219c.214844 1.152343.449219 2.296875.6875 3.445312.019531.105469.039062.214844.0625.324219 3.074219-12.457031 9.976562-23.894531 20.03125-32.527344 13.707031-11.78125 33.378906-25.78125 59.1875-37.210937 28.308594-12.539063 64-21.980469 107.308594-21.980469 58.640625 0 103.332031 17.300781 134.621094 36.191406 12.878906 7.757813 23.488281 15.796875 31.878906 23 10.046875 8.617188 16.355468 19.792969 20.023437 32.375 6.324219-24.269531-4.421875-49.53125-23.273437-65.113281-9.019532-7.457031-18.609375-14.222656-28.628906-20.261719l-241.929688-14.210937c-21.378906 9.464843-41.453125 21.964843-59.191406 37.210937-16.609375 14.269532-24.820313 37.214844-20.777344 58.757813zm0 0" fill="#e2b3a3" data-original="#E2B3A3" class=""/><path d="m362.585938 177.191406s-51.621094 57.539063-185.621094 57.539063c0 0 9.332031-25.058594 17.332031-46.402344 0 0-45.300781 36.402344-94 36.402344 0 0 12.058594-21.78125 20.359375-61.75 28.308594-12.539063 64-21.980469 107.308594-21.980469 58.640625 0 103.332031 17.300781 134.621094 36.191406zm0 0" fill="#8c6a5a" data-original="#8C6A5A" class="" style="fill:#000000" data-old_color="#8c6a5a"/><path d="m120.65625 192.980469c28.308594-12.539063 64-21.980469 107.308594-21.980469 45.632812 0 82.808594 10.476562 111.804687 24.023438 15.726563-9.9375 22.816407-17.832032 22.816407-17.832032-26.402344-15.9375-62.339844-30.746094-108.152344-34.984375-8.796875-.8125-17.632813-1.207031-26.46875-1.207031-36.785156 0-73.613282 7.054688-107.308594 21.980469-2.816406 13.570312-6.070312 25.039062-9.136719 34.273437 2.957031-1.457031 6-2.886718 9.136719-4.273437zm0 0" fill="#816253" data-original="#816253" class="" style="fill:#000000" data-old_color="#816253"/><path d="m276.277344 411.941406h-96.621094c-14.714844 0-26.640625 11.929688-26.640625 26.640625v65.917969h149.902344v-65.917969c0-14.714843-11.929688-26.640625-26.640625-26.640625zm0 0" fill="#d6d6d6" data-original="#D6D6D6" class="" style="fill:#82CFCD" data-old_color="#d6d6d6"/><path d="m209.65625 411.941406h-30c-14.714844 0-26.640625 11.929688-26.640625 26.640625v65.917969h30v-65.917969c0-14.710937 11.925781-26.640625 26.640625-26.640625zm0 0" fill="#bfbfbf" data-original="#BFBFBF" class="" style="fill:#5DA7A5" data-old_color="#bfbfbf"/><path d="m243.417969 460.964844c0 8.53125-6.917969 15.449218-15.453125 15.449218-8.53125 0-15.449219-6.917968-15.449219-15.449218 0-8.535156 6.917969-15.453125 15.449219-15.453125 8.535156 0 15.453125 6.917969 15.453125 15.453125zm0 0" fill="#e8e8e8" data-original="#E8E8E8" class=""/><path d="m321.855469 266.433594v-16.796875c0-4.140625-3.359375-7.5-7.5-7.5s-7.5 3.359375-7.5 7.5v16.796875c0 4.140625 3.359375 7.5 7.5 7.5s7.5-3.359375 7.5-7.5zm0 0" data-original="#000000" class="" style="fill:#000000"/><path d="m149.074219 266.433594v-16.796875c0-4.140625-3.355469-7.5-7.5-7.5-4.140625 0-7.5 3.359375-7.5 7.5v16.796875c0 4.140625 3.359375 7.5 7.5 7.5 4.144531 0 7.5-3.359375 7.5-7.5zm0 0" data-original="#000000" class="" style="fill:#000000"/><path d="m237.769531 278.402344c-2.371093 2.714844-5.945312 4.273437-9.804687 4.273437s-7.433594-1.558593-9.804688-4.273437c-2.726562-3.121094-7.464844-3.4375-10.582031-.710938-3.121094 2.726563-3.4375 7.464844-.710937 10.582032 5.222656 5.972656 12.910156 9.402343 21.097656 9.402343s15.878906-3.429687 21.097656-9.402343c2.726562-3.117188 2.410156-7.855469-.710938-10.582032-3.117187-2.726562-7.855468-2.410156-10.582031.710938zm0 0" data-original="#000000" class="" style="fill:#000000"/><path d="m227.964844 438.011719c-12.65625 0-22.949219 10.296875-22.949219 22.953125 0 12.652344 10.292969 22.949218 22.949219 22.949218s22.953125-10.296874 22.953125-22.949218c0-12.65625-10.296875-22.953125-22.953125-22.953125zm0 30.902343c-4.382813 0-7.949219-3.566406-7.949219-7.949218 0-4.386719 3.566406-7.953125 7.949219-7.953125 4.386718 0 7.953125 3.566406 7.953125 7.953125 0 4.382812-3.566407 7.949218-7.953125 7.949218zm0 0" data-original="#000000" class="" style="fill:#000000"/><path d="m412.546875 355.363281c28.382813-38.511719 43.386719-83.683593 43.386719-130.632812 0-60.148438-23.792969-116.664063-67-159.132813-43.03125-42.300781-100.195313-65.597656-160.96875-65.597656-57.484375 0-112.355469 21.132812-154.507813 59.507812-3.0625 2.789063-3.285156 7.53125-.496093 10.59375 2.789062 3.0625 7.53125 3.285157 10.59375.496094 39.382812-35.851562 90.667968-55.597656 144.410156-55.597656 56.8125 0 110.246094 21.769531 150.453125 61.292969 40.3125 39.628906 62.515625 92.34375 62.515625 148.4375 0 43.722656-13.992188 85.820312-40.460938 121.734375-24.101562 32.695312-57.878906 58.574218-95.652344 73.402344-1.164062-1.757813-2.5-3.382813-3.941406-4.917969-.007812-.007813-.015625-.015625-.023437-.023438-2.363281-2.453125-5.085938-4.558593-8.089844-6.222656 23.15625-7.890625 44.800781-19.992187 63.691406-35.863281 3.171875-2.664063 3.582031-7.394532.917969-10.566406-2.664062-3.171876-7.398438-3.582032-10.566406-.917969-33.074219 27.785156-75.277344 43.085937-118.84375 43.085937-88.25 0-163.914063-61.769531-179.90625-146.875-3.585938-19.109375 3.425781-38.914062 18.296875-51.6875 13.164062-11.3125 27.730469-21.148437 43.441406-29.347656-.335937 1.285156-.675781 2.574219-1.027344 3.855469-3.777343 13.800781-8.175781 27.949219-14.980469 40.601562-.003906.011719-.011718.027344-.015624.035157-2.644532 4.871093.882812 11.203124 6.523437 11.203124 31.023437 0 60.273437-13.636718 78.769531-24.59375-5.0625 13.554688-9.125 24.46875-9.128906 24.476563-1.792969 4.824219 1.898438 10.117187 7.03125 10.117187 63.214844 0 137.871094-11.664062 186.628906-55.589843 9.164063 5.832031 17.882813 12.289062 25.980469 19.242187 14.871094 12.769532 21.882813 32.574219 18.296875 51.683594-5.828125 31.023438-20.039062 60.144531-41.089844 84.210938-2.726562 3.117187-2.410156 7.855468.707032 10.582031 3.121093 2.726562 7.859374 2.410156 10.585937-.707031 22.8125-26.082032 38.214844-57.660157 44.539063-91.320313 4.570312-24.351563-4.34375-49.578125-23.265626-65.832031-10.15625-8.71875-21.222656-16.699219-32.894531-23.734375-40.964843-24.722657-87.558593-37.261719-138.492187-37.261719-39.328125 0-76.453125 7.609375-110.347656 22.621094-22.417969 9.929687-42.957032 22.84375-61.039063 38.378906-18.917969 16.253906-27.832031 41.476562-23.261719 65.835938 13.222656 70.359374 64.039063 125.988281 129.796875 148.394531-3.554687 1.980469-6.71875 4.574219-9.351562 7.640625-.953125 1.101562-1.832031 2.261718-2.636719 3.476562-37.753906-14.839844-71.527344-40.714844-95.632812-73.394531-26.488282-35.921875-40.492188-78.011719-40.492188-121.722656 0-49.339844 16.757812-95.410157 48.464844-133.226563 2.660156-3.175781 2.242187-7.90625-.929688-10.566406-3.175781-2.660156-7.90625-2.246094-10.566406.929688-34 40.554687-51.96875 89.957031-51.96875 142.863281 0 46.9375 15.015625 92.109375 43.421875 130.625 24.347656 33.011719 57.933594 59.523437 95.617187 75.726562-13.640624 21.894531-21.085937 47.613281-21.085937 73.417969 0 4.140625 3.359375 7.5 7.5 7.5h205.027344c4.140625 0 7.5-3.359375 7.5-7.5 0-25.808594-7.441407-51.519531-21.066407-73.398438 37.699219-16.199218 71.289063-42.710937 95.632813-75.738281zm-62.613281-176.800781c-.078125.058594-.152344.121094-.226563.183594-27.324219 22.171875-62.410156 34.414062-96.519531 41.269531-21.941406 4.414063-43.183594 6.335937-61.578125 6.964844-1.265625.042969-2.53125.082031-3.792969.113281 1.4375-3.851562 10.707032-28.671875 13.5-36.128906 1.730469-4.609375-1.5625-9.722656-6.457031-10.089844-2.894531-.21875-4.851563 1.339844-7.015625 2.949219-7.710938 5.75-39.730469 28.179687-75.449219 32.636719.054688-.132813.113281-.28125.167969-.414063 4.050781-9.777344 7.363281-19.835937 10.222656-30.027344 1.613282-5.746093 3.03125-11.550781 4.328125-17.378906.023438-.105469.046875-.207031.070313-.3125 31.019531-13.160156 64.90625-19.828125 100.78125-19.828125 44.550781 0 85.527344 10.105469 121.96875 30.0625zm-204.417969 318.4375h-12.328125c1.003906-16.175781 5.242188-32.136719 12.328125-46.710938zm15-58.417969c0-10.378906 8.769531-19.140625 19.140625-19.140625h96.617188c10.390624 0 19.140624 8.757813 19.140624 19.140625v58.417969h-134.898437zm149.898437 58.417969v-46.726562c7.089844 14.574218 11.324219 30.539062 12.332032 46.726562zm0 0" data-original="#000000" class="" style="fill:#000000"/></g> </svg>
