<?xml version="1.0" encoding="UTF-8" ?>
<!DOCTYPE svg PUBLIC "-//W3C//DTD SVG 1.1//EN" "http://www.w3.org/Graphics/SVG/1.1/DTD/svg11.dtd">
<svg width="146pt" height="146pt" viewBox="0 0 146 146" version="1.1" xmlns="http://www.w3.org/2000/svg">
<g id="#6f4848ff">
<path fill="#6f4848" opacity="1.00" d=" M 16.64 2.28 L 17.30 1.69 C 16.22 6.70 14.92 11.67 14.37 16.78 C 13.50 23.61 13.95 30.50 14.02 37.35 C 12.43 25.67 13.29 13.59 16.64 2.28 Z" />
<path fill="#6f4848" opacity="1.00" d=" M 21.47 8.47 C 23.89 8.70 26.36 9.12 28.43 10.47 C 32.55 13.01 36.88 15.17 41.13 17.48 C 41.77 19.71 42.55 21.90 43.35 24.08 C 49.10 20.80 55.52 19.04 62.06 18.22 C 63.71 21.60 66.06 24.98 65.85 28.91 C 65.61 33.40 64.36 37.94 61.77 41.66 C 56.02 41.18 50.10 39.48 44.41 41.27 C 43.10 41.80 43.48 43.60 42.96 44.69 C 48.12 43.99 53.40 43.96 58.46 45.37 C 52.75 48.57 46.02 51.71 39.38 49.60 C 34.88 48.27 28.94 46.94 27.38 41.84 C 27.94 39.26 29.43 37.00 30.77 34.76 C 32.66 31.45 36.72 30.05 38.11 26.38 C 36.72 25.72 35.33 25.08 33.93 24.44 C 35.84 24.52 37.76 24.69 39.66 24.42 C 40.79 23.67 40.46 22.03 40.78 20.87 C 34.40 20.40 28.11 17.97 23.24 13.78 C 21.56 12.57 21.90 10.26 21.47 8.47 Z" />
<path fill="#6f4848" opacity="1.00" d=" M 96.97 10.08 C 97.48 9.77 98.50 9.15 99.01 8.84 C 98.50 9.15 97.48 9.77 96.97 10.08 Z" />
<path fill="#6f4848" opacity="1.00" d=" M 91.80 11.86 C 92.37 11.68 93.50 11.32 94.07 11.14 C 93.50 11.32 92.37 11.68 91.80 11.86 Z" />
<path fill="#6f4848" opacity="1.00" d=" M 71.85 14.10 C 72.41 14.31 73.54 14.74 74.10 14.95 C 73.54 14.74 72.41 14.31 71.85 14.10 Z" />
<path fill="#6f4848" opacity="1.00" d=" M 53.94 15.97 C 54.52 15.78 55.67 15.42 56.25 15.24 C 55.67 15.42 54.52 15.78 53.94 15.97 Z" />
<path fill="#6f4848" opacity="1.00" d=" M 80.77 16.14 C 81.32 16.36 82.44 16.82 83.00 17.05 C 82.44 16.82 81.32 16.36 80.77 16.14 Z" />
<path fill="#6f4848" opacity="1.00" d=" M 114.89 40.65 C 114.78 39.12 116.34 38.14 117.11 36.98 C 116.72 38.91 116.12 40.81 115.00 42.45 C 114.98 42.00 114.92 41.10 114.89 40.65 Z" />
<path fill="#6f4848" opacity="1.00" d=" M 14.09 38.07 C 15.62 40.10 15.84 42.69 15.04 45.07 C 13.86 42.92 13.59 40.45 14.09 38.07 Z" />
<path fill="#6f4848" opacity="1.00" d=" M 18.35 41.52 C 20.26 41.98 22.35 42.05 24.09 43.05 C 25.37 44.33 25.50 46.22 25.55 47.93 C 25.56 48.29 25.57 49.01 25.58 49.37 C 23.55 48.44 21.40 47.70 19.60 46.36 C 18.80 44.88 18.71 43.14 18.35 41.52 Z" />
<path fill="#6f4848" opacity="1.00" d=" M 15.26 45.76 C 15.42 46.34 15.73 47.50 15.89 48.07 C 15.73 47.50 15.42 46.34 15.26 45.76 Z" />
<path fill="#6f4848" opacity="1.00" d=" M 66.25 47.86 C 68.02 49.41 69.98 50.73 72.22 51.49 C 70.92 51.87 69.60 52.19 68.29 52.51 C 67.62 50.95 66.94 49.40 66.25 47.86 Z" />
<path fill="#6f4848" opacity="1.00" d=" M 20.10 51.18 C 21.58 51.49 21.70 53.43 20.28 53.93 C 20.23 53.25 20.14 51.87 20.10 51.18 Z" />
<path fill="#6f4848" opacity="1.00" d=" M 42.35 84.20 C 43.71 84.95 43.58 85.53 41.97 85.95 C 42.06 85.52 42.25 84.64 42.35 84.20 Z" />
<path fill="#6f4848" opacity="1.00" d=" M 38.63 106.51 C 38.12 102.31 37.79 97.96 38.84 93.80 C 38.64 98.04 38.73 102.28 38.63 106.51 Z" />
<path fill="#6f4848" opacity="1.00" d=" M 43.01 110.56 C 45.87 109.57 49.21 106.58 52.20 108.77 C 55.24 110.72 54.95 115.33 52.87 117.86 C 50.97 119.41 48.30 119.08 46.02 119.47 C 44.87 116.55 43.81 113.60 43.01 110.56 Z" />
<path fill="#6f4848" opacity="1.00" d=" M 97.32 122.83 C 99.61 123.62 101.87 124.46 104.13 125.29 C 103.25 126.67 103.02 129.09 101.04 129.29 C 99.72 128.95 98.45 128.43 97.17 127.96 C 97.22 126.25 97.27 124.54 97.32 122.83 Z" />
<path fill="#6f4848" opacity="1.00" d=" M 114.98 130.09 C 117.00 129.08 118.99 128.00 120.92 126.84 C 119.23 128.38 117.17 129.45 114.98 130.09 Z" />
<path fill="#6f4848" opacity="1.00" d=" M 117.79 141.08 C 118.58 139.80 119.66 139.47 121.04 140.12 C 120.16 141.15 119.08 141.47 117.79 141.08 Z" />
<path fill="#6f4848" opacity="1.00" d=" M 39.52 142.79 C 38.89 141.29 41.48 140.27 42.31 141.50 L 42.22 142.22 C 41.47 143.41 40.58 143.60 39.52 142.79 Z" />
<path fill="#6f4848" opacity="1.00" d=" M 111.98 142.18 C 112.57 140.91 113.53 140.43 114.85 140.72 C 114.39 142.05 113.43 142.54 111.98 142.18 Z" />
<path fill="#6f4848" opacity="1.00" d=" M 72.92 143.78 C 74.62 143.33 76.40 143.47 78.04 144.08 C 76.49 145.39 74.29 145.35 72.92 143.78 Z" />
</g>
<g id="#010000fe">
<path fill="#010000" opacity="1.00" d=" M 17.30 1.69 C 23.94 4.92 30.31 8.70 36.96 11.93 C 37.49 12.21 38.55 12.78 39.08 13.07 C 41.47 14.41 43.61 16.15 45.48 18.15 C 48.31 17.45 51.11 16.63 53.94 15.97 C 54.52 15.78 55.67 15.42 56.25 15.24 C 61.38 14.19 66.61 13.82 71.85 14.10 C 72.41 14.31 73.54 14.74 74.10 14.95 C 76.33 15.28 78.55 15.70 80.77 16.14 C 81.32 16.36 82.44 16.82 83.00 17.05 C 84.33 17.34 85.65 17.65 86.98 17.95 C 88.48 15.84 90.04 13.76 91.80 11.86 C 92.37 11.68 93.50 11.32 94.07 11.14 C 95.03 10.78 96.00 10.43 96.97 10.08 C 97.48 9.77 98.50 9.15 99.01 8.84 C 104.56 6.19 110.43 3.32 116.68 3.19 C 123.02 9.09 120.67 18.40 121.58 26.05 C 122.41 32.59 120.72 39.08 118.26 45.10 C 117.89 45.57 117.15 46.53 116.78 47.01 C 116.01 47.43 115.24 47.84 114.46 48.24 C 113.02 48.48 112.78 50.44 114.07 51.07 C 115.23 52.26 116.49 53.48 117.03 55.09 C 117.16 56.52 116.23 57.77 115.76 59.07 C 118.34 63.15 115.70 68.57 111.88 70.85 C 108.49 73.07 105.48 75.77 102.53 78.52 C 99.25 81.56 95.12 83.38 91.08 85.16 C 93.59 92.37 95.85 99.79 95.36 107.53 C 97.66 108.53 99.93 109.59 102.18 110.71 C 102.19 112.94 104.02 114.80 106.25 114.86 C 109.17 120.07 108.28 126.07 106.13 131.37 C 109.10 131.12 112.12 130.99 114.98 130.09 C 117.17 129.45 119.23 128.38 120.92 126.84 C 121.18 126.60 121.69 126.12 121.94 125.88 C 123.44 124.42 124.75 122.79 126.00 121.12 C 126.22 120.84 126.67 120.28 126.90 120.00 C 127.21 119.49 127.85 118.47 128.16 117.96 C 130.17 115.56 132.44 113.38 135.06 111.65 C 136.50 112.53 138.35 112.59 139.88 111.90 C 141.45 113.13 143.36 114.22 144.12 116.18 C 145.07 120.57 143.12 125.04 140.46 128.47 C 135.46 134.29 128.14 137.60 121.04 140.12 C 119.66 139.47 118.58 139.80 117.79 141.08 C 117.06 140.99 115.59 140.81 114.85 140.72 C 113.53 140.43 112.57 140.91 111.98 142.18 C 107.61 141.91 103.28 141.21 98.97 140.47 C 98.57 142.58 97.95 144.75 96.05 146.00 L 91.73 146.00 C 87.40 144.13 82.69 143.93 78.04 144.08 C 76.40 143.47 74.62 143.33 72.92 143.78 C 65.36 144.47 57.77 145.57 50.17 144.65 C 47.69 144.17 45.29 144.97 43.06 146.00 L 35.18 146.00 L 35.14 145.08 C 35.54 143.70 35.46 142.38 34.87 141.12 C 35.66 140.37 36.44 139.62 37.21 138.86 C 33.65 136.42 29.93 133.88 27.72 130.05 C 27.29 126.33 27.32 122.57 27.79 118.85 C 28.02 117.83 28.29 116.82 28.57 115.81 C 28.98 115.37 29.80 114.50 30.21 114.06 C 32.54 111.05 35.55 108.70 38.63 106.51 C 38.73 102.28 38.64 98.04 38.84 93.80 C 39.60 91.08 40.88 88.55 41.97 85.95 C 43.58 85.53 43.71 84.95 42.35 84.20 C 36.50 82.53 32.27 77.99 27.36 74.69 C 24.95 72.96 21.87 72.82 19.07 72.16 C 19.39 70.15 19.80 68.16 20.31 66.19 C 19.57 65.75 18.83 65.31 18.09 64.87 C 18.66 63.21 18.34 61.43 18.07 59.75 L 18.22 58.82 C 18.08 58.15 17.80 56.83 17.66 56.17 C 18.52 55.41 19.39 54.66 20.28 53.93 C 21.70 53.43 21.58 51.49 20.10 51.18 C 18.61 50.26 17.22 49.20 15.89 48.07 C 15.73 47.50 15.42 46.34 15.26 45.76 L 15.04 45.07 C 15.84 42.69 15.62 40.10 14.09 38.07 L 14.02 37.35 C 13.95 30.50 13.50 23.61 14.37 16.78 C 14.92 11.67 16.22 6.70 17.30 1.69 M 93.67 15.69 C 90.42 17.13 92.19 23.19 87.89 22.83 C 81.12 20.31 74.00 17.51 66.58 18.03 C 71.38 26.45 69.61 36.94 64.78 44.93 C 66.98 45.49 69.24 45.83 71.41 46.54 C 72.42 48.00 72.32 49.80 72.22 51.49 C 69.98 50.73 68.02 49.41 66.25 47.86 C 66.94 49.40 67.62 50.95 68.29 52.51 C 65.26 53.85 62.44 51.59 60.46 49.51 C 57.63 51.14 54.49 52.07 51.38 52.99 C 51.58 54.21 51.77 55.43 51.95 56.66 C 45.51 56.97 38.85 58.59 33.78 62.76 C 32.16 63.93 30.79 65.97 28.52 65.50 C 28.25 64.07 27.92 62.29 29.28 61.29 C 32.74 57.97 37.20 55.99 41.60 54.27 C 36.07 52.67 30.38 51.22 25.55 47.93 C 25.50 46.22 25.37 44.33 24.09 43.05 C 22.35 42.05 20.26 41.98 18.35 41.52 C 18.71 43.14 18.80 44.88 19.60 46.36 C 21.40 47.70 23.55 48.44 25.58 49.37 C 26.01 51.88 24.42 53.89 23.40 56.01 C 24.16 57.26 25.78 58.27 25.38 59.94 C 24.31 60.98 23.10 61.83 21.93 62.73 C 23.61 63.10 25.29 63.50 26.96 63.94 C 26.32 65.67 25.48 67.32 24.39 68.82 C 31.63 71.20 36.27 77.99 43.37 80.64 C 46.28 81.69 49.25 82.57 52.21 83.47 C 52.38 86.98 48.88 86.54 46.42 86.43 C 44.99 89.31 43.28 92.09 42.39 95.20 C 41.88 98.74 42.24 102.34 42.25 105.90 C 45.39 104.28 49.03 103.42 52.49 104.47 C 54.94 105.57 57.13 107.55 58.06 110.11 C 58.72 113.29 57.91 116.62 56.55 119.50 C 54.59 122.27 51.03 122.86 47.93 123.49 C 50.77 128.19 54.66 132.75 54.63 138.55 C 53.35 139.41 52.05 140.23 50.76 141.07 C 55.64 140.83 60.52 140.72 65.41 140.85 C 66.53 133.22 61.25 126.68 61.16 119.22 C 62.22 119.21 63.29 119.23 64.36 119.25 C 65.54 121.69 65.17 125.56 67.73 126.94 C 69.25 124.61 69.23 119.62 73.02 120.17 C 75.35 119.81 74.44 122.41 73.68 123.47 C 70.67 128.40 69.82 134.19 69.62 139.87 C 74.58 140.13 79.60 140.56 84.56 139.99 C 83.12 139.00 81.60 138.13 80.06 137.32 C 79.78 133.44 82.49 130.47 84.50 127.46 C 87.47 123.18 90.36 118.44 90.53 113.09 C 92.38 104.14 90.04 95.04 87.54 86.46 C 85.96 86.20 84.35 86.22 82.77 86.03 C 81.74 83.22 85.42 82.25 86.86 80.49 C 89.21 80.96 91.68 81.19 93.74 79.71 C 99.86 77.08 103.50 71.13 109.18 67.87 C 107.81 66.83 107.21 65.31 106.99 63.65 C 108.35 63.14 109.70 62.62 111.06 62.10 C 109.98 60.71 108.76 59.25 109.14 57.36 C 110.11 56.46 111.25 55.80 112.33 55.06 C 111.03 53.16 108.27 51.65 108.55 49.09 C 110.59 46.78 113.60 45.28 115.00 42.45 C 116.12 40.81 116.72 38.91 117.11 36.98 C 116.34 38.14 114.78 39.12 114.89 40.65 C 112.66 42.18 110.71 44.32 107.81 44.39 C 107.69 41.60 107.45 38.66 105.57 36.43 C 103.15 32.43 98.25 30.47 96.52 26.01 C 97.12 24.73 98.03 23.64 98.89 22.53 C 97.25 21.71 96.37 20.38 96.69 18.53 C 99.93 17.50 103.24 16.69 106.42 15.47 C 109.22 14.05 110.30 10.86 111.52 8.18 C 105.17 9.68 99.57 13.05 93.67 15.69 M 21.47 8.47 C 21.90 10.26 21.56 12.57 23.24 13.78 C 28.11 17.97 34.40 20.40 40.78 20.87 C 40.46 22.03 40.79 23.67 39.66 24.42 C 37.76 24.69 35.84 24.52 33.93 24.44 C 35.33 25.08 36.72 25.72 38.11 26.38 C 36.72 30.05 32.66 31.45 30.77 34.76 C 29.43 37.00 27.94 39.26 27.38 41.84 C 28.94 46.94 34.88 48.27 39.38 49.60 C 46.02 51.71 52.75 48.57 58.46 45.37 C 53.40 43.96 48.12 43.99 42.96 44.69 C 43.48 43.60 43.10 41.80 44.41 41.27 C 50.10 39.48 56.02 41.18 61.77 41.66 C 64.36 37.94 65.61 33.40 65.85 28.91 C 66.06 24.98 63.71 21.60 62.06 18.22 C 55.52 19.04 49.10 20.80 43.35 24.08 C 42.55 21.90 41.77 19.71 41.13 17.48 C 36.88 15.17 32.55 13.01 28.43 10.47 C 26.36 9.12 23.89 8.70 21.47 8.47 M 115.63 8.70 C 114.22 11.53 113.23 14.67 111.00 17.00 C 109.36 18.87 106.84 19.46 104.60 20.29 C 104.59 21.38 104.57 22.47 104.55 23.56 C 103.40 24.45 102.24 25.34 101.09 26.22 C 103.76 28.75 106.72 31.07 108.72 34.22 C 109.70 35.48 110.29 37.17 111.81 37.89 C 115.41 31.96 117.64 24.98 117.29 17.99 C 117.40 14.79 117.58 11.44 115.63 8.70 M 19.11 13.11 C 18.03 17.69 18.05 22.40 18.39 27.07 C 18.32 31.77 18.88 37.45 23.43 40.02 C 25.52 35.89 27.75 31.81 30.45 28.04 C 28.29 25.94 27.83 23.15 28.74 20.34 C 24.97 18.77 21.75 16.20 19.11 13.11 M 43.01 110.56 C 43.81 113.60 44.87 116.55 46.02 119.47 C 48.30 119.08 50.97 119.41 52.87 117.86 C 54.95 115.33 55.24 110.72 52.20 108.77 C 49.21 106.58 45.87 109.57 43.01 110.56 M 94.39 111.11 C 95.05 120.15 89.21 127.55 84.45 134.60 C 86.72 136.13 87.89 138.51 88.98 140.92 C 90.49 141.43 92.04 141.79 93.57 142.22 C 93.12 141.21 92.16 140.33 92.24 139.16 C 93.73 136.61 96.45 135.15 98.50 133.11 C 96.31 131.63 93.38 130.06 93.30 127.04 C 93.40 124.44 92.52 120.71 95.60 119.56 C 98.65 118.33 101.69 120.02 104.51 121.05 C 103.09 116.14 98.89 113.01 94.39 111.11 M 30.95 126.98 C 32.92 132.21 38.60 134.21 42.75 137.33 C 42.83 138.73 42.49 140.11 42.31 141.50 C 41.48 140.27 38.89 141.29 39.52 142.79 C 40.58 143.60 41.47 143.41 42.22 142.22 C 43.33 141.01 44.27 139.64 45.51 138.55 C 47.19 137.69 49.21 137.40 50.64 136.10 C 49.44 132.94 47.38 130.24 45.69 127.35 C 42.90 122.19 40.55 116.78 39.20 111.06 C 33.81 114.40 29.34 120.30 30.95 126.98 M 136.31 115.31 C 132.20 118.24 130.12 123.07 126.54 126.53 C 122.52 131.47 116.33 134.28 110.09 135.04 C 106.84 135.48 103.11 134.23 100.35 136.53 C 112.49 140.59 125.57 135.77 135.28 128.27 C 138.25 125.38 141.27 121.49 140.33 117.08 C 139.21 116.13 137.94 114.68 136.31 115.31 M 97.32 122.83 C 97.27 124.54 97.22 126.25 97.17 127.96 C 98.45 128.43 99.72 128.95 101.04 129.29 C 103.02 129.09 103.25 126.67 104.13 125.29 C 101.87 124.46 99.61 123.62 97.32 122.83 Z" />
<path fill="#010000" opacity="1.00" d=" M 77.34 40.44 C 81.54 39.76 86.40 39.30 90.07 41.91 C 91.95 42.54 91.27 44.48 91.25 45.97 C 87.30 45.04 83.31 42.54 79.18 44.20 C 77.68 44.50 76.16 46.00 74.62 45.35 C 73.51 43.07 74.94 40.83 77.34 40.44 Z" />
<path fill="#010000" opacity="1.00" d=" M 79.25 53.16 C 86.87 50.05 95.39 49.13 103.34 51.59 C 103.39 52.72 103.44 53.85 103.50 54.97 C 99.97 54.75 96.52 53.77 92.96 53.97 C 88.24 53.84 83.91 55.95 79.42 57.08 C 79.35 55.77 79.29 54.47 79.25 53.16 Z" />
<path fill="#010000" opacity="1.00" d=" M 62.81 57.90 C 63.88 56.77 64.38 54.79 66.05 54.45 C 70.66 54.31 72.88 59.61 77.60 59.45 C 77.56 59.93 77.49 60.88 77.45 61.35 C 72.94 62.82 74.11 68.30 71.09 71.14 C 69.36 73.46 66.59 74.63 63.93 75.51 C 61.23 76.20 58.30 73.90 59.30 71.01 C 60.37 67.05 59.65 62.86 57.08 59.61 C 58.97 58.95 60.90 58.44 62.81 57.90 M 66.36 63.32 C 63.92 66.09 61.74 69.23 60.89 72.89 C 62.54 72.71 64.68 73.40 65.88 71.86 C 68.15 69.34 69.95 66.41 71.37 63.33 C 69.71 63.30 67.99 62.83 66.36 63.32 Z" />
<path fill="#010000" opacity="1.00" d=" M 82.41 57.73 C 90.19 56.27 97.51 59.99 104.63 62.51 C 104.58 63.60 104.52 64.68 104.46 65.77 C 96.88 65.03 90.03 59.39 82.23 61.73 C 82.27 60.39 82.33 59.06 82.41 57.73 Z" />
<path fill="#010000" opacity="1.00" d=" M 47.71 61.72 C 49.07 60.61 50.82 60.36 52.50 60.13 C 52.53 61.19 52.56 62.26 52.58 63.33 C 48.51 66.10 43.48 68.62 42.13 73.79 C 41.38 73.49 39.89 72.90 39.14 72.61 C 39.04 67.30 43.96 64.46 47.71 61.72 Z" />
<path fill="#010000" opacity="1.00" d=" M 82.65 65.04 C 87.79 64.70 92.74 67.43 96.19 71.07 C 96.45 72.85 96.49 74.97 94.04 74.35 C 90.75 71.16 86.77 69.02 82.22 68.29 C 82.33 67.48 82.54 65.85 82.65 65.04 Z" />
</g>
<g id="#fff9cfff">
<path fill="#fff9cf" opacity="1.00" d=" M 93.67 15.69 C 99.57 13.05 105.17 9.68 111.52 8.18 C 110.30 10.86 109.22 14.05 106.42 15.47 C 103.24 16.69 99.93 17.50 96.69 18.53 C 96.37 20.38 97.25 21.71 98.89 22.53 C 98.03 23.64 97.12 24.73 96.52 26.01 C 98.25 30.47 103.15 32.43 105.57 36.43 C 107.45 38.66 107.69 41.60 107.81 44.39 C 110.71 44.32 112.66 42.18 114.89 40.65 C 114.92 41.10 114.98 42.00 115.00 42.45 C 113.60 45.28 110.59 46.78 108.55 49.09 C 108.27 51.65 111.03 53.16 112.33 55.06 C 111.25 55.80 110.11 56.46 109.14 57.36 C 108.76 59.25 109.98 60.71 111.06 62.10 C 109.70 62.62 108.35 63.14 106.99 63.65 C 107.21 65.31 107.81 66.83 109.18 67.87 C 103.50 71.13 99.86 77.08 93.74 79.71 C 91.68 81.19 89.21 80.96 86.86 80.49 C 85.42 82.25 81.74 83.22 82.77 86.03 C 84.35 86.22 85.96 86.20 87.54 86.46 C 90.04 95.04 92.38 104.14 90.53 113.09 C 90.36 118.44 87.47 123.18 84.50 127.46 C 82.49 130.47 79.78 133.44 80.06 137.32 C 81.60 138.13 83.12 139.00 84.56 139.99 C 79.60 140.56 74.58 140.13 69.62 139.87 C 69.82 134.19 70.67 128.40 73.68 123.47 C 74.44 122.41 75.35 119.81 73.02 120.17 C 69.23 119.62 69.25 124.61 67.73 126.94 C 65.17 125.56 65.54 121.69 64.36 119.25 C 63.29 119.23 62.22 119.21 61.16 119.22 C 61.25 126.68 66.53 133.22 65.41 140.85 C 60.52 140.72 55.64 140.83 50.76 141.07 C 52.05 140.23 53.35 139.41 54.63 138.55 C 54.66 132.75 50.77 128.19 47.93 123.49 C 51.03 122.86 54.59 122.27 56.55 119.50 C 57.91 116.62 58.72 113.29 58.06 110.11 C 57.13 107.55 54.94 105.57 52.49 104.47 C 49.03 103.42 45.39 104.28 42.25 105.90 C 42.24 102.34 41.88 98.74 42.39 95.20 C 43.28 92.09 44.99 89.31 46.42 86.43 C 48.88 86.54 52.38 86.98 52.21 83.47 C 49.25 82.57 46.28 81.69 43.37 80.64 C 36.27 77.99 31.63 71.20 24.39 68.82 C 25.48 67.32 26.32 65.67 26.96 63.94 C 25.29 63.50 23.61 63.10 21.93 62.73 C 23.10 61.83 24.31 60.98 25.38 59.94 C 25.78 58.27 24.16 57.26 23.40 56.01 C 24.42 53.89 26.01 51.88 25.58 49.37 C 25.57 49.01 25.56 48.29 25.55 47.93 C 30.38 51.22 36.07 52.67 41.60 54.27 C 37.20 55.99 32.74 57.97 29.28 61.29 C 27.92 62.29 28.25 64.07 28.52 65.50 C 30.79 65.97 32.16 63.93 33.78 62.76 C 38.85 58.59 45.51 56.97 51.95 56.66 C 51.77 55.43 51.58 54.21 51.38 52.99 C 54.49 52.07 57.63 51.14 60.46 49.51 C 62.44 51.59 65.26 53.85 68.29 52.51 C 69.60 52.19 70.92 51.87 72.22 51.49 C 72.32 49.80 72.42 48.00 71.41 46.54 C 69.24 45.83 66.98 45.49 64.78 44.93 C 69.61 36.94 71.38 26.45 66.58 18.03 C 74.00 17.51 81.12 20.31 87.89 22.83 C 92.19 23.19 90.42 17.13 93.67 15.69 M 77.34 40.44 C 74.94 40.83 73.51 43.07 74.62 45.35 C 76.16 46.00 77.68 44.50 79.18 44.20 C 83.31 42.54 87.30 45.04 91.25 45.97 C 91.27 44.48 91.95 42.54 90.07 41.91 C 86.40 39.30 81.54 39.76 77.34 40.44 M 79.25 53.16 C 79.29 54.47 79.35 55.77 79.42 57.08 C 83.91 55.95 88.24 53.84 92.96 53.97 C 96.52 53.77 99.97 54.75 103.50 54.97 C 103.44 53.85 103.39 52.72 103.34 51.59 C 95.39 49.13 86.87 50.05 79.25 53.16 M 62.81 57.90 C 60.90 58.44 58.97 58.95 57.08 59.61 C 59.65 62.86 60.37 67.05 59.30 71.01 C 58.30 73.90 61.23 76.20 63.93 75.51 C 66.59 74.63 69.36 73.46 71.09 71.14 C 74.11 68.30 72.94 62.82 77.45 61.35 C 77.49 60.88 77.56 59.93 77.60 59.45 C 72.88 59.61 70.66 54.31 66.05 54.45 C 64.38 54.79 63.88 56.77 62.81 57.90 M 82.41 57.73 C 82.33 59.06 82.27 60.39 82.23 61.73 C 90.03 59.39 96.88 65.03 104.46 65.77 C 104.52 64.68 104.58 63.60 104.63 62.51 C 97.51 59.99 90.19 56.27 82.41 57.73 M 47.71 61.72 C 43.96 64.46 39.04 67.30 39.14 72.61 C 39.89 72.90 41.38 73.49 42.13 73.79 C 43.48 68.62 48.51 66.10 52.58 63.33 C 52.56 62.26 52.53 61.19 52.50 60.13 C 50.82 60.36 49.07 60.61 47.71 61.72 M 82.65 65.04 C 82.54 65.85 82.33 67.48 82.22 68.29 C 86.77 69.02 90.75 71.16 94.04 74.35 C 96.49 74.97 96.45 72.85 96.19 71.07 C 92.74 67.43 87.79 64.70 82.65 65.04 Z" />
<path fill="#fff9cf" opacity="1.00" d=" M 36.96 11.93 C 37.49 12.21 38.55 12.78 39.08 13.07 C 38.55 12.78 37.49 12.21 36.96 11.93 Z" />
<path fill="#fff9cf" opacity="1.00" d=" M 116.78 47.01 C 117.15 46.53 117.89 45.57 118.26 45.10 C 117.89 45.57 117.15 46.53 116.78 47.01 Z" />
<path fill="#fff9cf" opacity="1.00" d=" M 114.07 51.07 C 112.78 50.44 113.02 48.48 114.46 48.24 C 114.36 48.95 114.17 50.36 114.07 51.07 Z" />
<path fill="#fff9cf" opacity="1.00" d=" M 18.22 58.82 C 16.65 58.97 16.28 56.72 17.66 56.17 C 17.80 56.83 18.08 58.15 18.22 58.82 Z" />
<path fill="#fff9cf" opacity="1.00" d=" M 18.09 64.87 C 15.97 63.82 17.23 61.25 18.07 59.75 C 18.34 61.43 18.66 63.21 18.09 64.87 Z" />
<path fill="#fff9cf" opacity="1.00" d=" M 94.39 111.11 C 98.89 113.01 103.09 116.14 104.51 121.05 C 101.69 120.02 98.65 118.33 95.60 119.56 C 92.52 120.71 93.40 124.44 93.30 127.04 C 93.38 130.06 96.31 131.63 98.50 133.11 C 96.45 135.15 93.73 136.61 92.24 139.16 C 92.16 140.33 93.12 141.21 93.57 142.22 C 92.04 141.79 90.49 141.43 88.98 140.92 C 87.89 138.51 86.72 136.13 84.45 134.60 C 89.21 127.55 95.05 120.15 94.39 111.11 Z" />
<path fill="#fff9cf" opacity="1.00" d=" M 102.18 110.71 C 104.00 111.50 105.59 112.95 106.25 114.86 C 104.02 114.80 102.19 112.94 102.18 110.71 Z" />
<path fill="#fff9cf" opacity="1.00" d=" M 135.06 111.65 C 136.42 110.28 138.55 110.73 139.88 111.90 C 138.35 112.59 136.50 112.53 135.06 111.65 Z" />
<path fill="#fff9cf" opacity="1.00" d=" M 30.95 126.98 C 29.34 120.30 33.81 114.40 39.20 111.06 C 40.55 116.78 42.90 122.19 45.69 127.35 C 47.38 130.24 49.44 132.94 50.64 136.10 C 49.21 137.40 47.19 137.69 45.51 138.55 C 44.27 139.64 43.33 141.01 42.22 142.22 L 42.31 141.50 C 42.49 140.11 42.83 138.73 42.75 137.33 C 38.60 134.21 32.92 132.21 30.95 126.98 Z" />
<path fill="#fff9cf" opacity="1.00" d=" M 28.57 115.81 C 28.98 115.37 29.80 114.50 30.21 114.06 C 29.80 114.50 28.98 115.37 28.57 115.81 Z" />
<path fill="#fff9cf" opacity="1.00" d=" M 136.31 115.31 C 137.94 114.68 139.21 116.13 140.33 117.08 C 141.27 121.49 138.25 125.38 135.28 128.27 C 125.57 135.77 112.49 140.59 100.35 136.53 C 103.11 134.23 106.84 135.48 110.09 135.04 C 116.33 134.28 122.52 131.47 126.54 126.53 C 130.12 123.07 132.20 118.24 136.31 115.31 Z" />
<path fill="#fff9cf" opacity="1.00" d=" M 126.90 120.00 C 127.21 119.49 127.85 118.47 128.16 117.96 C 127.85 118.47 127.21 119.49 126.90 120.00 Z" />
<path fill="#fff9cf" opacity="1.00" d=" M 27.72 130.05 C 26.98 126.37 27.02 122.52 27.79 118.85 C 27.32 122.57 27.29 126.33 27.72 130.05 Z" />
<path fill="#fff9cf" opacity="1.00" d=" M 121.94 125.88 C 123.26 124.26 124.61 122.67 126.00 121.12 C 124.75 122.79 123.44 124.42 121.94 125.88 Z" />
<path fill="#fff9cf" opacity="1.00" d=" M 35.14 145.08 C 33.89 144.10 33.18 142.07 34.87 141.12 C 35.46 142.38 35.54 143.70 35.14 145.08 Z" />
</g>
<g id="#ffc3c3ff">
<path fill="#ffc3c3" opacity="1.00" d=" M 115.63 8.70 C 117.58 11.44 117.40 14.79 117.29 17.99 C 117.64 24.98 115.41 31.96 111.81 37.89 C 110.29 37.17 109.70 35.48 108.72 34.22 C 106.72 31.07 103.76 28.75 101.09 26.22 C 102.24 25.34 103.40 24.45 104.55 23.56 C 104.57 22.47 104.59 21.38 104.60 20.29 C 106.84 19.46 109.36 18.87 111.00 17.00 C 113.23 14.67 114.22 11.53 115.63 8.70 Z" />
<path fill="#ffc3c3" opacity="1.00" d=" M 19.11 13.11 C 21.75 16.20 24.97 18.77 28.74 20.34 C 27.83 23.15 28.29 25.94 30.45 28.04 C 27.75 31.81 25.52 35.89 23.43 40.02 C 18.88 37.45 18.32 31.77 18.39 27.07 C 18.05 22.40 18.03 17.69 19.11 13.11 Z" />
</g>
<g id="#fa8483ff">
<path fill="#fa8483" opacity="1.00" d=" M 66.36 63.32 C 67.99 62.83 69.71 63.30 71.37 63.33 C 69.95 66.41 68.15 69.34 65.88 71.86 C 64.68 73.40 62.54 72.71 60.89 72.89 C 61.74 69.23 63.92 66.09 66.36 63.32 Z" />
</g>
</svg>
