<?xml version="1.0" encoding="utf-8"?>
<!-- Generator: Adobe Illustrator 19.0.0, SVG Export Plug-In . SVG Version: 6.00 Build 0)  -->
<svg version="1.1" id="Layer_1" xmlns="http://www.w3.org/2000/svg" xmlns:xlink="http://www.w3.org/1999/xlink" x="0px" y="0px"
	 viewBox="0 0 512 512" style="enable-background:new 0 0 512 512;" xml:space="preserve">
<g id="XMLID_1_">
	<path id="XMLID_3_" d="M511.2,166.7l-5.8,38.2c0,0-8.3-70.5-19.1-97.1c-15.8-40.7-23.2-39.8-23.2-39.8c10.8,27.4,9.1,41.5,9.1,41.5
		S453.2,58,403.4,41.4c-55.6-18.3-85.5-13.3-88.8-12.4h-1.7h0.8l0,0c0,0,61.4,10.8,72.2,25.7c0,0-25.7,0-51.5,7.5
		c-0.8,0,95.4,11.6,114.5,107.9c0,0-10.8-22.4-23.2-25.7c8.3,25.7,6.6,75.5-1.7,100.4c-0.8,3.3-2.5-13.3-18.3-20.7
		c5,37.3,0,95.4-25.7,112c-1.7,1.7,15.8-58.1,3.3-34.9c-71.4,109.6-156,50.6-194.2,24.9c19.1,4.1,56.4-0.8,73-12.4l0,0
		c17.4-12.4,28.2-20.7,38.2-19.1c9.1,2.5,15.8-7.5,8.3-15.8c-7.5-8.3-24.9-19.9-49.8-14.1c-17.4,4.1-38.2,23.2-70.5,4.1
		c-24.9-14.9-27.4-26.6-27.4-35.7c0.8-3.3,1.7-5.8,2.5-8.3c2.5-8.3,11.6-10,16.6-12.4c8.3,1.7,14.9,4.1,22.4,7.5c0-2.5,0-5.8,0-9.1
		c0.8-1.7,0-5.8-0.8-10.8c-0.8-5-1.7-10.8-3.3-15.8l0,0l0,0l0,0l0,0c0.8-2.5,5.8-6.6,13.3-11.6c5.8-4.1,13.3-9.1,19.1-12.4
		c5-3.3,9.1-5.8,10-5.8l0.8-0.8l0,0l0,0c2.5-2.5,6.6-6.6,7.5-14.9l0,0v-0.8v-0.8V136v-0.8l0,0v-2.5V131l0,0l0,0l0,0l0,0l0,0
		c-0.8-1.7-4.1-2.5-17.4-3.3l0,0c-5.8,0-12.4,0-22.4,0c-16.6,0-25.7-16.6-29-22.4c4.1-22.4,15.8-38.2,34.9-49v-0.8
		c4.1-2.5-45.6,0-68.1,28.2c-19.9-5-37.3-5-52.3-0.8c-2.5,0-6.6-0.8-10.8-1.7c-10-9.1-24.1-25.7-24.9-45.6l0,0v-0.8
		c0,0-30.7,23.2-25.7,87.1v3.3c-8.3,10.8-12.4,20.7-12.4,22.4C13.3,162.5,5.8,184.9,0,219c0,0,4.1-13.3,12.4-28.2
		c-6.6,19.1-10.8,49-8.3,93c0,0,0.8-10,3.3-24.1C10,287,19.1,321,42.3,361.7c44.8,77.2,112.9,116.2,189.2,122
		c13.3,0.8,27.4,0.8,40.7,0h4.1c15.8-0.8,31.5-3.3,46.5-7.5C534.5,424.8,511.2,166.7,511.2,166.7L511.2,166.7z"/>
</g>
</svg>
