<svg fill="#000000" xmlns="http://www.w3.org/2000/svg"  viewBox="0 0 50 50" width="100px" height="100px"><path d="M45.274,2.325C45.084,2.118,44.817,2,44.536,2H5.464C5.183,2,4.916,2.118,4.726,2.325S4.443,2.81,4.468,3.089l3.52,39.427c0.037,0.412,0.324,0.759,0.722,0.873l16.011,4.573C24.81,47.987,24.902,48,24.995,48s0.185-0.013,0.274-0.038l16.024-4.573c0.398-0.114,0.685-0.461,0.722-0.873l3.518-39.427C45.557,2.809,45.463,2.532,45.274,2.325z M36.847,15.919H18.036l0.447,5.09h17.911l-1.343,15.04l-10.057,3.041l-0.099-0.03l-9.942-3.012l-0.542-6.13h4.869l0.214,2.38l5.556,1.164l5.457-1.166l0.581-6.435H14.045l-1.321-14.807h24.559L36.847,15.919z"/></svg>