<?xml version="1.0"?>
<svg xmlns="http://www.w3.org/2000/svg" height="512px" viewBox="0 0 512 512.0005" width="512px" class=""><g>
<path d="m246.597656 341.300781h-200.621094c-8.65625 0-15.675781-7.015625-15.675781-15.671875v-226.261718c0-8.65625 7.019531-15.675782 15.675781-15.675782h200.621094c8.65625 0 15.671875 7.019532 15.671875 15.675782v226.257812c0 8.660156-7.015625 15.675781-15.671875 15.675781zm0 0" fill="#fff1c5" data-original="#FFF1C5" class=""/><path d="m392.882812 341.300781h-317.648437c-8.65625 0-15.675781-7.015625-15.675781-15.671875v-226.261718c0-8.65625 7.019531-15.675782 15.675781-15.675782h317.648437c8.65625 0 15.671876 7.019532 15.671876 15.675782v226.257812c0 8.660156-7.015626 15.675781-15.671876 15.675781zm0 0" fill="#fff5f5" data-original="#FFF5F5" class=""/><path d="m408.554688 73.242188v31.347656h-378.253907v-31.347656c0-11.539063 9.359375-20.894532 20.898438-20.894532h336.457031c11.542969 0 20.898438 9.355469 20.898438 20.894532zm0 0" fill="#fa0" data-original="#FA0" class="" data-old_color="#fa0" style="fill:#FFE266"/><path d="m408.554688 73.242188v31.347656h-348.996094v-31.347656c0-11.539063 9.355468-20.894532 20.898437-20.894532h307.199219c11.542969 0 20.898438 9.355469 20.898438 20.894532zm0 0" fill="#ffcf48" data-original="#FFCF48" class="" style="fill:#F1ED7B" data-old_color="#ffcf48"/><path d="m74.269531 78.46875c0 6.660156-5.398437 12.054688-12.058593 12.054688-6.65625 0-12.054688-5.394532-12.054688-12.054688s5.398438-12.058594 12.054688-12.058594c6.660156 0 12.058593 5.398438 12.058593 12.058594zm28.128907-12.054688c-6.65625 0-12.054688 5.394532-12.054688 12.054688s5.398438 12.054688 12.054688 12.054688c6.660156 0 12.058593-5.394532 12.058593-12.054688 0-6.65625-5.398437-12.054688-12.058593-12.054688zm40.191406 0c-6.660156 0-12.058594 5.394532-12.058594 12.054688s5.398438 12.054688 12.058594 12.054688c6.65625 0 12.054687-5.394532 12.054687-12.054688s-5.398437-12.054688-12.054687-12.054688zm0 0" fill="#f48c03" data-original="#F48C03" class=""/><path d="m239.28125 140.015625v10.449219c0 2.886718-2.339844 5.226562-5.222656 5.226562h-177.632813c-2.886719 0-5.226562-2.339844-5.226562-5.226562v-10.449219c0-2.882813 2.339843-5.222656 5.226562-5.222656h177.632813c2.882812 0 5.222656 2.339843 5.222656 5.222656zm-109.714844 120.164063h-73.140625c-2.886719 0-5.226562 2.339843-5.226562 5.226562v10.449219c0 2.882812 2.339843 5.222656 5.226562 5.222656h73.140625c2.886719 0 5.226563-2.339844 5.226563-5.222656v-10.449219c0-2.886719-2.339844-5.226562-5.226563-5.226562zm208.980469-125.386719h-73.140625c-2.886719 0-5.226562 2.339843-5.226562 5.222656v10.449219c0 2.886718 2.339843 5.226562 5.226562 5.226562h73.140625c2.886719 0 5.226563-2.339844 5.226563-5.226562v-10.449219c0-2.882813-2.339844-5.222656-5.226563-5.222656zm0 0" fill="#ffe266" data-original="#FFE266" class="" style="fill:#FFE266"/><path d="m92.996094 181.8125v10.449219c0 2.886719-2.339844 5.222656-5.222656 5.222656h-31.347657c-2.886719 0-5.226562-2.335937-5.226562-5.222656v-10.449219c0-2.882812 2.339843-5.222656 5.226562-5.222656h31.347657c2.882812 0 5.222656 2.339844 5.222656 5.222656zm-5.222656 36.570312h-31.347657c-2.886719 0-5.226562 2.339844-5.226562 5.226563v10.449219c0 2.882812 2.339843 5.222656 5.226562 5.222656h31.347657c2.882812 0 5.222656-2.339844 5.222656-5.222656v-10.449219c0-2.886719-2.339844-5.226563-5.222656-5.226563zm0 0" fill="#ff6466" data-original="#FF6466" class="" style="fill:#FB5252" data-old_color="#ff6466"/><path d="m205.28125 223.609375v10.449219c0 2.882812-2.335938 5.222656-5.222656 5.222656h-80.941406c-2.882813 0-5.222657-2.339844-5.222657-5.222656v-10.449219c0-2.886719 2.339844-5.226563 5.222657-5.226563h80.941406c2.886718 0 5.222656 2.339844 5.222656 5.226563zm-5.222656-47.019531h-80.941406c-2.882813 0-5.222657 2.339844-5.222657 5.222656v10.449219c0 2.886719 2.339844 5.222656 5.222657 5.222656h80.941406c2.886718 0 5.222656-2.335937 5.222656-5.222656v-10.449219c0-2.882812-2.335938-5.222656-5.222656-5.222656zm0 0" fill="#ffe59c" data-original="#FFE59C" class=""/><path d="m195.394531 459.65625h-34.480469c-8.65625 0-15.671874-7.019531-15.671874-15.675781v-226.261719c0-8.652344 7.015624-15.671875 15.671874-15.671875h34.480469c8.65625 0 15.675781 7.019531 15.675781 15.671875v226.261719c0 8.65625-7.019531 15.675781-15.675781 15.675781zm0 0" fill="#97f0f2" data-original="#97F0F2" class=""/><path d="m512 256c0 83.070312-39.578125 156.882812-100.890625 203.65625h-220.9375c-8.65625 0-15.671875-7.019531-15.671875-15.675781v-226.261719c0-8.652344 7.015625-15.671875 15.671875-15.671875h316.113281c3.734375 17.398437 5.714844 35.441406 5.714844 53.953125zm0 0" fill="#c0fbff" data-original="#C0FBFF" class=""/><path d="m327 331.53125c0 6.65625-5.398438 12.054688-12.054688 12.054688-6.660156 0-12.054687-5.398438-12.054687-12.054688 0-6.660156 5.394531-12.058594 12.054687-12.058594 6.65625 0 12.054688 5.398438 12.054688 12.058594zm28.132812-12.058594c-6.65625 0-12.054687 5.398438-12.054687 12.058594 0 6.65625 5.398437 12.054688 12.054687 12.054688s12.054688-5.398438 12.054688-12.054688c0-6.660156-5.398438-12.058594-12.054688-12.058594zm0 0" fill="#84deea" data-original="#84DEEA" class=""/><path d="m221.191406 222.945312h-75.949218v-31.347656c0-11.542968 9.355468-20.898437 20.898437-20.898437h54.910156c11.710938 0 21.976563 7.867187 24.996094 19.179687.046875.175782.089844.347656.136719.519532 4.351562 16.433593-7.992188 32.546874-24.992188 32.546874zm0 0" fill="#02cc69" data-original="#02CC69" class="" style="fill:#337F7D" data-old_color="#02cc69"/><path d="m509.878906 222.945312h-335.378906v-31.347656c0-11.539062 9.355469-20.898437 20.894531-20.898437h302.03125c5.898438 16.691406 10.125 34.171875 12.453125 52.246093zm0 0" fill="#54d680" data-original="#54D680" class="" style="fill:#82CFCD" data-old_color="#54d680"/><path d="m189.207031 196.824219c0 6.65625-5.398437 12.054687-12.054687 12.054687-6.660156 0-12.058594-5.398437-12.058594-12.054687 0-6.660157 5.398438-12.058594 12.054688-12.058594 6.660156 0 12.058593 5.398437 12.058593 12.058594zm28.132813-12.058594c-6.660156 0-12.058594 5.398437-12.058594 12.058594 0 6.65625 5.398438 12.054687 12.058594 12.054687 6.65625 0 12.054687-5.398437 12.054687-12.054687 0-6.660157-5.394531-12.058594-12.054687-12.058594zm40.1875 0c-6.660156 0-12.054688 5.398437-12.054688 12.058594 0 6.65625 5.398438 12.054687 12.054688 12.054687 6.660156 0 12.054687-5.398437 12.054687-12.054687 0-6.660157-5.394531-12.058594-12.054687-12.058594zm0 0" fill="#00b96f" data-original="#00B96F" class="" style="fill:#337F7D" data-old_color="#00b96f"/><path d="m300.816406 297.382812-34.144531 34.148438 34.144531 34.144531c6.121094 6.121094 6.121094 16.042969 0 22.164063-3.058594 3.0625-7.070312 4.59375-11.082031 4.59375s-8.023437-1.53125-11.082031-4.59375l-45.226563-45.226563c-6.121093-6.121093-6.121093-16.042969 0-22.164062l45.226563-45.230469c6.121094-6.117188 16.042968-6.117188 22.164062 0 6.121094 6.121094 6.121094 16.046875 0 22.164062zm135.835938 23.0625-45.226563-45.226562c-6.121093-6.121094-16.042969-6.121094-22.164062 0-6.121094 6.121094-6.121094 16.046875 0 22.164062l34.144531 34.148438-34.144531 34.144531c-6.121094 6.121094-6.121094 16.042969 0 22.164063 3.058593 3.0625 7.070312 4.59375 11.082031 4.59375 4.007812 0 8.023438-1.53125 11.082031-4.59375l45.226563-45.226563c6.121094-6.121093 6.121094-16.046875 0-22.167969zm0 0" fill="#02cc69" data-original="#02CC69" class="" style="fill:#337F7D" data-old_color="#02cc69"/><path d="m300.265625 274.695312c6.667969 6.066407 6.847656 16.390626.550781 22.6875l-34.144531 34.148438 8.625 8.625c6.121094 6.121094 6.121094 16.042969 0 22.164062-6.121094 6.121094-16.042969 6.121094-22.164063 0l-19.710937-19.707031c-6.121094-6.121093-6.121094-16.042969 0-22.164062l44.914063-44.914063c5.96875-5.96875 15.6875-6.519531 21.929687-.839844zm136.386719 45.75-44.914063-44.914062c-5.964843-5.964844-15.6875-6.515625-21.929687-.835938-6.664063 6.066407-6.847656 16.390626-.546875 22.6875l34.144531 34.148438-8.625 8.625c-6.121094 6.121094-6.121094 16.042969 0 22.164062 6.121094 6.121094 16.042969 6.121094 22.164062 0l19.707032-19.707031c6.121094-6.121093 6.121094-16.046875 0-22.167969zm0 0" fill="#54d680" data-original="#54D680" class="" style="fill:#82CFCD" data-old_color="#54d680"/></g> </svg>
