<?xml version="1.0" encoding="UTF-8" standalone="no"?>
<!DOCTYPE svg PUBLIC "-//W3C//DTD SVG 20010904//EN" "http://www.w3.org/TR/2001/REC-SVG-20010904/DTD/svg10.dtd">
<svg version="1.0" xmlns="http://www.w3.org/2000/svg" width="512.000000pt" height="512.000000pt" viewBox="0 0 512.000000 512.000000" preserveAspectRatio="xMidYMid meet">

<g transform="translate(0.000000,512.000000) scale(0.100000,-0.100000)" fill="#000000" stroke="none">
<path d="M2435 5106 c-134 -31 -252 -104 -371 -228 -139 -145 -281 -385 -370 -625 -20 -57 -42 -103 -48 -103 -6 0 -47 6 -91 14 -443 78 -838 19 -1053 -158 -207 -169 -266 -444 -162 -756 52 -159 191 -396 339 -580 50 -63 58 -78 48 -91 -7 -9 -41 -51 -77 -94 -153 -181 -297 -425 -354 -596 -143 -428 16 -766 420 -892 220 -69 535 -74 854 -13 41 8 75 13 76 13 1 -1 20 -54 44 -117 165 -445 418 -757 690 -851 93 -33 267 -33 360 0 197 68 378 241 530 505 54 93 143 290 180 399 18 50 28 66 39 63 86 -26 361 -56 507 -56 299 0 541 75 692 215 227 211 250 525 65 904 -55 111 -198 327 -285 430 -35 40 -68 81 -75 90 -10 13 -2 28 48 91 148 184 284 417 339 580 159 474 -62 839 -559 925 -190 32 -433 28 -656 -11 -44 -8 -85 -14 -91 -14 -6 0 -28 46 -48 103 -159 430 -420 749 -686 837 -83 28 -223 35 -305 16z m260 -322 c152 -74 315 -298 439 -608 40 -99 42 -106 22 -106 -26 0 -310 -97 -453 -154 l-142 -58 -143 58 c-145 57 -428 154 -454 154 -19 0 -18 4 16 95 134 346 321 584 510 646 48 16 143 3 205 -27z m-1231 -909 c55 -8 100 -16 102 -18 1 -1 -13 -72 -32 -157 -18 -85 -44 -226 -56 -314 l-23 -159 -60 -45 c-119 -91 -262 -208 -352 -290 l-92 -82 -64 82 c-189 243 -285 443 -294 614 -7 112 11 173 68 238 64 73 204 130 369 150 66 8 335 -4 434 -19z m2736 0 c164 -37 279 -118 314 -222 61 -178 -41 -453 -281 -761 l-64 -82 -92 82 c-110 99 -223 192 -332 275 l-81 61 -18 133 c-16 120 -75 428 -91 478 -5 17 2 20 62 30 202 34 448 36 583 6z m-2176 -135 c86 -28 156 -54 156 -58 0 -4 -33 -25 -72 -47 -40 -21 -128 -71 -195 -111 -68 -40 -123 -71 -123 -70 0 24 70 336 76 336 1 0 73 -23 158 -50z m1246 3 c10 -42 60 -280 60 -289 0 -2 -39 21 -87 50 -49 29 -136 80 -195 112 -60 32 -108 62 -108 66 0 6 289 106 311 107 4 1 12 -20 19 -46z m-552 -292 c181 -92 389 -212 549 -316 l111 -73 9 -79 c4 -43 8 -249 8 -458 -1 -293 -4 -385 -14 -403 -24 -45 -417 -288 -684 -423 l-138 -70 -162 84 c-280 145 -635 366 -659 410 -15 26 -19 731 -5 860 l9 78 71 48 c133 90 377 232 560 326 100 52 183 95 185 95 2 0 74 -36 160 -79z m-1300 -978 l-3 -117 -80 70 c-44 39 -102 92 -130 117 l-50 46 70 64 c39 35 97 87 130 115 l60 50 3 -114 c1 -63 1 -167 0 -231z m2470 188 c39 -35 72 -68 72 -72 0 -8 -222 -208 -246 -222 -12 -7 -14 28 -14 224 l0 231 58 -48 c31 -27 90 -77 130 -113z m-2840 -380 c111 -102 214 -188 324 -272 73 -56 77 -61 83 -106 23 -176 51 -348 76 -472 17 -79 29 -144 27 -146 -2 -1 -55 -11 -118 -21 -160 -25 -475 -26 -575 -1 -152 38 -246 101 -292 195 -25 50 -28 68 -27 147 1 144 64 305 197 505 50 76 195 260 204 260 2 0 48 -40 101 -89z m3205 -3 c212 -264 320 -489 321 -673 1 -79 -2 -97 -27 -147 -45 -92 -130 -150 -277 -190 -75 -20 -107 -23 -280 -23 -142 0 -226 6 -310 19 -63 10 -116 20 -118 21 -2 2 10 67 27 146 25 124 53 296 76 471 6 44 11 51 68 95 99 75 276 224 357 301 41 39 78 71 82 72 3 0 40 -42 81 -92z m-2298 -663 c66 -39 148 -87 183 -105 34 -18 61 -34 59 -36 -4 -4 -329 -114 -337 -114 -4 0 -10 12 -13 28 -11 47 -54 266 -61 301 l-6 33 28 -18 c15 -10 81 -50 147 -89z m1370 25 c-28 -150 -58 -280 -66 -280 -7 0 -332 110 -336 114 -2 2 43 28 100 59 56 31 149 85 207 120 58 35 106 64 107 63 1 -1 -5 -35 -12 -76z m-669 -381 c129 -54 310 -121 419 -154 50 -16 94 -31 98 -35 20 -18 -132 -349 -223 -486 -71 -105 -180 -211 -255 -249 -50 -25 -72 -30 -135 -30 -67 0 -82 4 -140 35 -127 69 -249 216 -356 431 -55 110 -128 289 -120 296 2 2 82 30 177 63 96 32 233 83 304 114 72 30 131 55 133 56 2 0 46 -18 98 -41z"/>
<path d="M2409 2996 c-193 -68 -309 -233 -309 -438 1 -147 58 -266 174 -359 81 -66 150 -91 266 -96 79 -4 106 -1 159 17 150 50 251 151 302 302 28 84 23 225 -11 310 -28 70 -99 160 -163 206 -114 82 -284 106 -418 58z"/>
</g>
</svg>